<svg width="20" height="20" viewBox="0 0 20 20" fill="none" xmlns="http://www.w3.org/2000/svg">
<path d="M19.6156 14.152C18.7531 13.341 17.1393 12.1211 17.1393 8.125C17.1393 5.08984 14.7071 2.66016 11.4277 2.06406V1.25C11.4277 0.559766 10.7884 0 10 0C9.21161 0 8.57233 0.559766 8.57233 1.25V2.06406C5.29287 2.66016 2.86074 5.08984 2.86074 8.125C2.86074 12.1211 1.2469 13.341 0.384405 14.152C0.116548 14.4039 -0.00220127 14.7051 3.08654e-05 15C0.00494156 15.6406 0.579493 16.25 1.43306 16.25H18.5669C19.4205 16.25 19.9955 15.6406 20 15C20.0022 14.7051 19.8835 14.4035 19.6156 14.152ZM3.01475 14.375C3.96207 13.2824 4.99778 11.4715 5.00269 8.14766C5.00269 8.13984 5.00002 8.13281 5.00002 8.125C5.00002 5.70859 7.2384 3.75 10 3.75C12.7616 3.75 15 5.70859 15 8.125C15 8.13281 14.9973 8.13984 14.9973 8.14766C15.0022 11.4719 16.0379 13.2828 16.9852 14.375H3.01475ZM10 20C11.5768 20 12.8558 18.8809 12.8558 17.5H7.14421C7.14421 18.8809 8.42322 20 10 20Z" fill="black"/>
</svg>
