<svg width="24" height="24" viewBox="0 0 24 24" fill="none" xmlns="http://www.w3.org/2000/svg">
<path d="M21.6156 16.152C20.7531 15.341 19.1393 14.1211 19.1393 10.125C19.1393 7.08984 16.7071 4.66016 13.4277 4.06406V3.25C13.4277 2.55977 12.7884 2 12 2C11.2116 2 10.5723 2.55977 10.5723 3.25V4.06406C7.29287 4.66016 4.86074 7.08984 4.86074 10.125C4.86074 14.1211 3.2469 15.341 2.3844 16.152C2.11655 16.4039 1.9978 16.7051 2.00003 17C2.00494 17.6406 2.57949 18.25 3.43306 18.25H20.5669C21.4205 18.25 21.9955 17.6406 22 17C22.0022 16.7051 21.8835 16.4035 21.6156 16.152ZM5.01475 16.375C5.96207 15.2824 6.99778 13.4715 7.00269 10.1477C7.00269 10.1398 7.00002 10.1328 7.00002 10.125C7.00002 7.70859 9.2384 5.75 12 5.75C14.7616 5.75 17 7.70859 17 10.125C17 10.1328 16.9973 10.1398 16.9973 10.1477C17.0022 13.4719 18.0379 15.2828 18.9852 16.375H5.01475ZM12 22C13.5768 22 14.8558 20.8809 14.8558 19.5H9.14421C9.14421 20.8809 10.4232 22 12 22Z" fill="black"/>
<path d="M4 20L20 4" stroke="black" stroke-width="2.5" stroke-linecap="round"/>
</svg>
