<svg width="22" height="20" viewBox="0 0 22 20" fill="none" xmlns="http://www.w3.org/2000/svg">
<path fill-rule="evenodd" clip-rule="evenodd" d="M21.5 11.75V17.75C21.5 18.5784 20.8284 19.25 20 19.25H2C1.17157 19.25 0.5 18.5784 0.5 17.75V11.75C0.5 10.9216 1.17157 10.25 2 10.25H5.75C6.16421 10.25 6.5 10.5858 6.5 11C6.5 11.4142 6.16421 11.75 5.75 11.75H2V17.75H20V11.75H16.25C15.8358 11.75 15.5 11.4142 15.5 11C15.5 10.5858 15.8358 10.25 16.25 10.25H20C20.8284 10.25 21.5 10.9216 21.5 11.75ZM10.4694 11.5306C10.6101 11.6715 10.8009 11.7506 11 11.7506C11.1991 11.7506 11.3899 11.6715 11.5306 11.5306L16.0306 7.03063C16.3237 6.73757 16.3237 6.26243 16.0306 5.96938C15.7376 5.67632 15.2624 5.67632 14.9694 5.96938L11.75 9.18969V1.25C11.75 0.835786 11.4142 0.5 11 0.5C10.5858 0.5 10.25 0.835786 10.25 1.25V9.18969L7.03063 5.96938C6.73757 5.67632 6.26243 5.67632 5.96938 5.96938C5.67632 6.26243 5.67632 6.73757 5.96938 7.03063L10.4694 11.5306ZM17.75 14.75C17.75 14.1287 17.2463 13.625 16.625 13.625C16.0037 13.625 15.5 14.1287 15.5 14.75C15.5 15.3713 16.0037 15.875 16.625 15.875C17.2463 15.875 17.75 15.3713 17.75 14.75Z" fill="#121714"/>
</svg>
