<svg width="12" height="7" viewBox="0 0 12 7" fill="none" xmlns="http://www.w3.org/2000/svg">
<path d="M10.998 0.32603L5.99995 5.19803L1.00195 0.32603C0.91266 0.2388 0.792784 0.189965 0.667954 0.189965C0.543124 0.189965 0.423248 0.2388 0.333954 0.32603C0.290716 0.368394 0.256366 0.41896 0.232916 0.474766C0.209466 0.530572 0.197388 0.590497 0.197388 0.65103C0.197388 0.711563 0.209466 0.771487 0.232916 0.827293C0.256366 0.8831 0.290716 0.933666 0.333954 0.97603L5.65095 6.16003C5.74433 6.25104 5.86956 6.30198 5.99995 6.30198C6.13035 6.30198 6.25558 6.25104 6.34895 6.16003L11.666 0.97703C11.7095 0.934634 11.7441 0.883944 11.7677 0.827953C11.7914 0.771962 11.8035 0.711804 11.8035 0.65103C11.8035 0.590256 11.7914 0.530098 11.7677 0.474107C11.7441 0.418116 11.7095 0.367426 11.666 0.32503C11.5767 0.2378 11.4568 0.188965 11.332 0.188965C11.2071 0.188965 11.0872 0.2378 10.998 0.32503V0.32603Z" fill="#6B7280"/>
</svg>
