<svg width="24" height="24" viewBox="0 0 24 24" fill="none" xmlns="http://www.w3.org/2000/svg">
<path d="M12 1.99194C10.1897 1.99228 8.41346 2.48402 6.86073 3.41471C5.308 4.3454 4.03703 5.68013 3.1834 7.27653C2.32977 8.87292 1.9255 10.6711 2.01372 12.4792C2.10193 14.2874 2.67932 16.0377 3.68429 17.5434C4.68927 19.0491 6.08413 20.2538 7.72008 21.0289C9.35603 21.804 11.1717 22.1205 12.9734 21.9446C14.7752 21.7687 16.4954 21.1071 17.9505 20.0302C19.4057 18.9533 20.5412 17.5016 21.236 15.8299C21.577 15.0099 20.76 14.1859 19.938 14.5199C18.5292 15.0906 16.9649 15.1495 15.5172 14.6864C14.0694 14.2232 12.8298 13.2674 12.0137 11.985C11.1977 10.7026 10.8569 9.17472 11.0506 7.6671C11.2443 6.15947 11.9603 4.76741 13.074 3.73294L13.151 3.65294C13.702 3.02294 13.264 1.99994 12.393 1.99994H12.127L12.059 1.99394L12 1.99194Z" fill="#90CAEA"/>
</svg>
