<svg width="22" height="19" viewBox="0 0 22 19" fill="none" xmlns="http://www.w3.org/2000/svg">
<path d="M10.9998 17C11.2446 17.0001 11.4809 17.0902 11.6638 17.2529C11.8468 17.4157 11.9642 17.6396 11.9929 17.8828L11.9998 18H9.99977C9.99977 17.7348 10.1052 17.4805 10.2927 17.293C10.4803 17.1055 10.7346 17 10.9998 17Z" fill="#FFC423"/>
<path d="M5.29957 14.7002C5.56472 14.7002 5.81908 14.8057 6.0066 14.9932C6.17871 15.1653 6.28234 15.3947 6.29762 15.6377C6.3128 15.8806 6.23878 16.1212 6.08961 16.3135L6.0066 16.4072L5.30641 17.1074C5.12658 17.2865 4.88526 17.3906 4.6316 17.3984C4.37765 17.4062 4.12979 17.3165 3.93922 17.1484C3.74876 16.9804 3.62932 16.746 3.60524 16.4932C3.58125 16.2404 3.65408 15.988 3.80934 15.7871L3.89234 15.6934L4.59254 14.9932C4.78007 14.8057 5.03441 14.7002 5.29957 14.7002Z" fill="#FFC423"/>
<path d="M16.5134 14.7168C16.753 14.6716 17.0012 14.7151 17.2107 14.8398L17.3123 14.9102L17.407 14.9932L18.1062 15.6934C18.2855 15.8733 18.3904 16.1143 18.3982 16.3682C18.406 16.6221 18.3162 16.87 18.1482 17.0605C17.9802 17.251 17.7458 17.3704 17.4929 17.3945C17.2402 17.4186 16.9878 17.3456 16.7869 17.1904L16.6921 17.1074L15.9929 16.4072C15.8204 16.235 15.7162 16.0051 15.7009 15.7617C15.6857 15.5185 15.7603 15.2784 15.9099 15.0859C16.0595 14.8935 16.2739 14.762 16.5134 14.7168Z" fill="#FFC423"/>
<path d="M10.9998 5C11.9792 4.99999 12.9372 5.28751 13.7546 5.82715C14.5722 6.36694 15.2136 7.1352 15.5984 8.03613C15.9831 8.9371 16.0941 9.93166 15.9187 10.8955C15.7433 11.8593 15.2886 12.7504 14.6111 13.458C13.9336 14.1655 13.0634 14.6589 12.1082 14.876C11.153 15.0931 10.1548 15.0248 9.23805 14.6797C8.32121 14.3345 7.52577 13.7269 6.95094 12.9336C6.37617 12.1403 6.04717 11.1955 6.00465 10.2168L5.99977 10L6.00465 9.7832C6.06057 8.49596 6.61115 7.27979 7.54176 6.38867C8.47237 5.49755 9.7113 5.00007 10.9998 5Z" fill="#FFC423"/>
<path d="M2.99977 9C3.25456 9.00034 3.50003 9.09755 3.68531 9.27246C3.87063 9.44743 3.9819 9.68698 3.99684 9.94141C4.01176 10.1958 3.92887 10.4462 3.76539 10.6416C3.60189 10.837 3.3699 10.963 3.11695 10.9932L2.99977 11H1.99977C1.74499 10.9997 1.49953 10.9024 1.31422 10.7275C1.12889 10.5526 1.01764 10.313 1.0027 10.0586C0.987759 9.80415 1.07055 9.55385 1.23414 9.3584C1.39773 9.16296 1.6295 9.03694 1.88258 9.00684L1.99977 9H2.99977Z" fill="#FFC423"/>
<path d="M19.9998 9C20.2546 9.00034 20.5 9.09755 20.6853 9.27246C20.8706 9.44743 20.9819 9.68698 20.9968 9.94141C21.0118 10.1958 20.9289 10.4462 20.7654 10.6416C20.6019 10.837 20.3699 10.963 20.117 10.9932L19.9998 11H18.9998C18.745 10.9997 18.4995 10.9024 18.3142 10.7275C18.1289 10.5526 18.0176 10.313 18.0027 10.0586C17.9878 9.80415 18.0706 9.55385 18.2341 9.3584C18.3977 9.16296 18.6295 9.03694 18.8826 9.00684L18.9998 9H19.9998Z" fill="#FFC423"/>
<path d="M4.41383 2.61816C4.65273 2.57278 4.8998 2.61649 5.10914 2.74023L5.21266 2.80957L5.30641 2.89258L6.0066 3.59277C6.18595 3.77273 6.28986 4.01461 6.29762 4.26855C6.30532 4.5223 6.2164 4.76948 6.04859 4.95996C5.88063 5.15045 5.64613 5.26978 5.39332 5.29395C5.1404 5.31804 4.88728 5.24526 4.68629 5.08984L4.59254 5.00684L3.89234 4.30664C3.7207 4.13446 3.61746 3.90573 3.60231 3.66309C3.58724 3.42021 3.66109 3.17952 3.81031 2.9873C3.95962 2.79506 4.17472 2.6637 4.41383 2.61816Z" fill="#FFC423"/>
<path d="M17.3992 2.60059C17.6642 2.60059 17.9187 2.70534 18.1062 2.89258C18.2783 3.06472 18.3819 3.29417 18.3972 3.53711C18.4125 3.78014 18.3385 4.02049 18.1892 4.21289L18.1062 4.30664L17.407 5.00684C17.2271 5.18617 16.9851 5.29008 16.7312 5.29785C16.4773 5.30561 16.2294 5.21686 16.0388 5.04883C15.8484 4.88081 15.7289 4.64639 15.7048 4.39355C15.6808 4.14063 15.7545 3.88752 15.9099 3.68652L15.9929 3.59277L16.6921 2.89258C16.8796 2.7052 17.1342 2.60068 17.3992 2.60059Z" fill="#FFC423"/>
<path d="M10.9998 0C11.2446 8.97395e-05 11.4809 0.0902226 11.6638 0.25293C11.8468 0.415653 11.9642 0.639643 11.9929 0.882812L11.9998 1V2C11.9995 2.25488 11.9013 2.50021 11.7263 2.68555C11.5514 2.87067 11.3126 2.98209 11.0584 2.99707C10.804 3.012 10.5536 2.92909 10.3582 2.76562C10.1628 2.60208 10.0367 2.37021 10.0066 2.11719L9.99977 2V1C9.99977 0.734784 10.1052 0.480505 10.2927 0.292969C10.4803 0.105506 10.7346 0 10.9998 0Z" fill="#FFC423"/>
<path d="M10.8623 11C15.3872 11 19.273 13.3597 20.9617 16.7318C21.5211 17.8489 20.573 19 19.3238 19H2.40085C1.15157 19 0.203495 17.8489 0.762888 16.7318C2.45159 13.3597 6.33745 11 10.8623 11Z" fill="#99DB4E"/>
</svg>
