<svg width="24" height="24" viewBox="0 0 24 24" fill="none" xmlns="http://www.w3.org/2000/svg">
<path d="M20.207 3.79297C21.3227 4.90878 21.9494 6.42207 21.9494 7.99997C21.9494 9.57786 21.3227 11.0911 20.207 12.207L12.207 20.207C11.0868 21.3013 9.58036 21.91 8.01435 21.9009C6.44834 21.8917 4.94907 21.2656 3.84171 20.1583C2.73436 19.0509 2.10822 17.5516 2.0991 15.9856C2.08998 14.4196 2.69862 12.9131 3.793 11.793L11.793 3.79297C12.9088 2.6773 14.4221 2.05054 16 2.05054C17.5779 2.05054 19.0912 2.6773 20.207 3.79297ZM13.207 5.20697L8.913 9.49997L14.499 15.086L18.793 10.794C19.1641 10.4281 19.4592 9.9925 19.6612 9.51214C19.8632 9.03178 19.9681 8.5162 19.97 7.9951C19.9719 7.474 19.8706 6.95768 19.6721 6.47589C19.4735 5.99409 19.1816 5.55635 18.8131 5.18787C18.4446 4.81939 18.0069 4.52747 17.5251 4.32891C17.0433 4.13036 16.527 4.0291 16.0059 4.03097C15.4848 4.03284 14.9692 4.13779 14.4888 4.3398C14.0085 4.5418 13.5728 4.83686 13.207 5.20797" fill="white"/>
</svg>
