<svg width="24" height="24" viewBox="0 0 24 24" fill="none" xmlns="http://www.w3.org/2000/svg">
<g clip-path="url(#clip0_62_28992)">
<path fill-rule="evenodd" clip-rule="evenodd" d="M19.5 5.25H16.9013L15.6234 3.33375C15.4844 3.12536 15.2505 3.00015 15 3H9C8.74949 3.00015 8.51559 3.12536 8.37656 3.33375L7.09781 5.25H4.5C3.25736 5.25 2.25 6.25736 2.25 7.5V18C2.25 19.2426 3.25736 20.25 4.5 20.25H19.5C20.7426 20.25 21.75 19.2426 21.75 18V7.5C21.75 6.25736 20.7426 5.25 19.5 5.25ZM20.25 18C20.25 18.4142 19.9142 18.75 19.5 18.75H4.5C4.08579 18.75 3.75 18.4142 3.75 18V7.5C3.75 7.08579 4.08579 6.75 4.5 6.75H7.5C7.75084 6.75016 7.98516 6.62491 8.12438 6.41625L9.40125 4.5H14.5978L15.8756 6.41625C16.0148 6.62491 16.2492 6.75016 16.5 6.75H19.5C19.9142 6.75 20.25 7.08579 20.25 7.5V18ZM12 8.25C9.72183 8.25 7.875 10.0968 7.875 12.375C7.875 14.6532 9.72183 16.5 12 16.5C14.2782 16.5 16.125 14.6532 16.125 12.375C16.1224 10.0979 14.2771 8.25258 12 8.25ZM12 15C10.5503 15 9.375 13.8247 9.375 12.375C9.375 10.9253 10.5503 9.75 12 9.75C13.4497 9.75 14.625 10.9253 14.625 12.375C14.625 13.8247 13.4497 15 12 15Z" fill="white"/>
</g>
<defs>
<clipPath id="clip0_62_28992">
<rect width="24" height="24" fill="white"/>
</clipPath>
</defs>
</svg>
