<svg width="24" height="24" viewBox="0 0 24 24" fill="none" xmlns="http://www.w3.org/2000/svg">
<path d="M12.75 12C12.75 11.8011 12.671 11.6103 12.5303 11.4697C12.3897 11.329 12.1989 11.25 12 11.25C11.8011 11.25 11.6103 11.329 11.4697 11.4697C11.329 11.6103 11.25 11.8011 11.25 12V13.25H10C9.80109 13.25 9.61032 13.329 9.46967 13.4697C9.32902 13.6103 9.25 13.8011 9.25 14C9.25 14.1989 9.32902 14.3897 9.46967 14.5303C9.61032 14.671 9.80109 14.75 10 14.75H11.25V16C11.25 16.1989 11.329 16.3897 11.4697 16.5303C11.6103 16.671 11.8011 16.75 12 16.75C12.1989 16.75 12.3897 16.671 12.5303 16.5303C12.671 16.3897 12.75 16.1989 12.75 16V14.75H14C14.1989 14.75 14.3897 14.671 14.5303 14.5303C14.671 14.3897 14.75 14.1989 14.75 14C14.75 13.8011 14.671 13.6103 14.5303 13.4697C14.3897 13.329 14.1989 13.25 14 13.25H12.75V12Z" fill="black"/>
<path fill-rule="evenodd" clip-rule="evenodd" d="M7.478 1.25H16.522C16.736 1.25 16.932 1.25 17.098 1.261C17.276 1.273 17.471 1.301 17.67 1.383C18.098 1.561 18.44 1.902 18.617 2.33C18.699 2.529 18.727 2.724 18.739 2.902C18.75 3.067 18.75 3.264 18.75 3.478V3.522C18.75 3.736 18.75 3.932 18.739 4.098C18.727 4.276 18.699 4.471 18.617 4.67C18.4394 5.09875 18.0987 5.43939 17.67 5.617C17.5064 5.68229 17.3337 5.72176 17.158 5.734L18.988 7.216C19.5382 7.66124 19.982 8.22382 20.2868 8.86259C20.5917 9.50137 20.7499 10.2002 20.75 10.908V17.565C20.7502 18.6668 20.3673 19.7344 19.667 20.585L19.308 21.02C18.8624 21.561 18.3026 21.9966 17.6688 22.2957C17.035 22.5948 16.3428 22.7499 15.642 22.75H8.902C8.383 22.75 8.05 22.75 7.728 22.706C6.7744 22.5752 5.88304 22.1578 5.172 21.509C4.932 21.289 4.718 21.033 4.386 20.635L4.351 20.593C3.63958 19.7393 3.24999 18.6632 3.25 17.552V10.922C3.25006 10.2096 3.41033 9.50641 3.71897 8.86438C4.02761 8.22235 4.4767 7.65796 5.033 7.213L6.878 5.737C6.69018 5.72589 6.50527 5.68539 6.33 5.617C5.90125 5.43939 5.56061 5.09875 5.383 4.67C5.31142 4.48726 5.27021 4.29404 5.261 4.098C5.25 3.933 5.25 3.736 5.25 3.522V3.478C5.25 3.264 5.25 3.068 5.261 2.902C5.273 2.724 5.301 2.529 5.383 2.33C5.56061 1.90125 5.90125 1.56061 6.33 1.383C6.529 1.301 6.724 1.273 6.902 1.261C7.067 1.25 7.264 1.25 7.478 1.25ZM10.403 5.75H13.643C14.395 5.75 14.593 5.76 14.768 5.822C14.942 5.883 15.102 6 15.688 6.474L18.045 8.382C18.348 8.628 18.601 8.922 18.795 9.25H5.213C5.41 8.923 5.665 8.629 5.97 8.385L8.373 6.462C8.955 5.996 9.115 5.882 9.288 5.82C9.461 5.76 9.658 5.75 10.403 5.75ZM4.755 10.75H19.246C19.2487 10.8027 19.25 10.8553 19.25 10.908V17.25H4.75V10.922C4.75 10.8647 4.75167 10.8073 4.755 10.75ZM4.979 18.75H19.026C18.9004 19.0687 18.726 19.3659 18.509 19.631L18.151 20.066C17.846 20.4364 17.4627 20.7347 17.0287 20.9394C16.5948 21.1441 16.1208 21.2502 15.641 21.25H8.958C8.366 21.25 8.141 21.248 7.933 21.22C7.28001 21.1304 6.66969 20.8445 6.183 20.4C6.029 20.26 5.883 20.087 5.504 19.632C5.28442 19.3671 5.10662 19.0695 4.979 18.75ZM16.5 4.25H7.5C7.257 4.25 7.112 4.25 7.004 4.242C6.96915 4.23982 6.93443 4.23581 6.9 4.23C6.84154 4.20451 6.79504 4.15765 6.77 4.099C6.76389 4.06491 6.75955 4.03054 6.757 3.996C6.74954 3.83078 6.74721 3.66537 6.75 3.5C6.75 3.257 6.75 3.112 6.758 3.004C6.76018 2.96915 6.76419 2.93443 6.77 2.9C6.79549 2.84154 6.84235 2.79504 6.901 2.77C6.93509 2.76389 6.96947 2.75955 7.004 2.757C7.112 2.749 7.257 2.749 7.5 2.749H16.5C16.743 2.749 16.888 2.749 16.996 2.757C17.063 2.761 17.091 2.767 17.099 2.769C17.1575 2.79449 17.204 2.84135 17.229 2.9C17.2351 2.93409 17.2395 2.96846 17.242 3.003C17.25 3.111 17.25 3.256 17.25 3.499C17.25 3.742 17.25 3.887 17.242 3.995C17.2398 4.02952 17.2358 4.0639 17.23 4.098C17.2045 4.15646 17.1576 4.20296 17.099 4.228C17.0649 4.23411 17.0305 4.23845 16.996 4.241C16.8308 4.24879 16.6654 4.25246 16.5 4.25Z" fill="black"/>
</svg>
