<svg width="16" height="24" viewBox="0 0 16 24" fill="none" xmlns="http://www.w3.org/2000/svg">
<path d="M1.99219 2.38207C3.27669 1.09761 4.66822 1.84688 5.20343 2.38207L1.99219 5.59332C1.45699 5.0581 0.707701 3.66654 1.99219 2.38207Z" fill="#89CA44" stroke="#89CA44" stroke-linecap="round" stroke-linejoin="round"/>
<path d="M2.96023 4.26705C4.26705 1.65341 7.81249 1.89004 9.11931 2.32564C9.77297 1.01864 11.8244 0.457275 13.0398 1.67212C14.2551 2.88696 14.3466 4.28651 14.3466 5.59334V7.55303V10.1672C14.3466 13.4343 15 19.7067 15 21.2748C15 23.2351 11.733 23.2351 10.4261 22.5817C9.38067 22.0589 8.24809 22.3639 7.81249 22.5817C7.59468 22.7995 6.63635 23.2351 4.54543 23.2351C2.45452 23.2351 1.40408 21.154 1.27858 20.6214C1.09547 19.8444 0.755853 19.576 1.27858 18.0078C1.93199 16.0476 3.23881 16.701 3.23881 16.0476C3.23881 15.5248 3.23861 14.7411 1.93184 14.0873C1.49623 13.8695 0.755699 13.0419 1.27843 11.4737C1.80116 9.90549 3.23846 9.94906 3.89177 10.1669C3.02055 9.29563 1.70134 6.78485 2.96023 4.26705Z" fill="#99DE4F" stroke="#99DE4F" stroke-linecap="round" stroke-linejoin="round"/>
<path d="M10.8002 10.1476C9.71114 9.92983 8.84178 10.148 8.18773 11.4546C7.8955 12.0384 7.53308 12.7614 8.18658 14.0681" stroke="#89CA44" stroke-linecap="round" stroke-linejoin="round"/>
<path d="M11.4663 16.6819C10.1594 16.6819 8.87169 16.6882 8.1992 18.6421C7.85246 19.6496 8.18756 20.6024 8.83916 21.2558" stroke="#89CA44" stroke-linecap="round" stroke-linejoin="round"/>
<path d="M4.26595 8.84096C3.87738 8.00246 3.70458 6.97314 4.26487 6.22738C4.85551 5.44125 5.57355 4.92042 6.87993 4.92049" stroke="#89CA44" stroke-linecap="round" stroke-linejoin="round"/>
<circle cx="8.18747" cy="5.57382" r="0.653411" fill="#89CA44"/>
<circle cx="4.26681" cy="5.57382" r="0.653411" fill="#89CA44"/>
<path d="M4.94702 6.10376L5.55157 6.35168" stroke="#89CA44" stroke-linecap="round" stroke-linejoin="round"/>
</svg>
