<svg width="24" height="24" viewBox="0 0 24 24" fill="none" xmlns="http://www.w3.org/2000/svg">
<path d="M3.50351 15.8412C3.38873 14.9197 3.54907 13.9849 3.96435 13.1543L4.69916 11.6847C5.01837 11.0463 5.40411 10.4434 5.84997 9.88597L7.648 7.63809L9.5897 5.69661C10.3461 4.94026 11.2399 4.33517 12.2231 3.9138L13.3289 3.43991C14.4438 2.96207 15.6921 2.89505 16.8518 3.25077L17.2385 3.36937C18.5397 3.76849 19.5766 4.75762 20.0367 6.03855C20.4059 7.06651 20.3719 8.19619 19.9416 9.20009L19.2601 10.7899C18.9277 11.5652 18.4846 12.2881 17.9445 12.9361L15.672 15.6625L14.0301 17.247C12.8266 18.4084 11.3205 19.2076 9.68413 19.5534L8.61446 19.7794C7.97897 19.9137 7.3211 19.8998 6.69186 19.7387C5.00756 19.3077 3.75867 17.8898 3.54378 16.1646L3.50351 15.8412Z" fill="#FFE6A0"/>
<path d="M8.88297 8.87256C9.29448 8.04953 11.3521 5.78619 12.5866 5.78619" stroke="#FFF5DB" stroke-linecap="round" stroke-linejoin="round"/>
</svg>
