<svg width="25" height="24" viewBox="0 0 25 24" fill="none" xmlns="http://www.w3.org/2000/svg">
<path d="M9.5 12H8V10.5H9.5V12ZM15.5 12H14V10.5H15.5V12ZM21.5 10.5V13.5H20V17.25C20 17.5625 19.9414 17.8555 19.8242 18.1289C19.707 18.4023 19.5469 18.6406 19.3438 18.8438C19.1406 19.0469 18.9023 19.207 18.6289 19.3242C18.3555 19.4414 18.0625 19.5 17.75 19.5H14.6562L9.5 23.9062V19.5H5.75C5.4375 19.5 5.14453 19.4414 4.87109 19.3242C4.59766 19.207 4.35938 19.0469 4.15625 18.8438C3.95312 18.6406 3.79297 18.4023 3.67578 18.1289C3.55859 17.8555 3.5 17.5625 3.5 17.25V13.5H2V10.5H3.5V8.25C3.5 7.9375 3.55859 7.64453 3.67578 7.37109C3.79297 7.09766 3.95312 6.85938 4.15625 6.65625C4.35938 6.45312 4.59766 6.29297 4.87109 6.17578C5.14453 6.05859 5.4375 6 5.75 6H11V3.55078C10.7734 3.41797 10.5938 3.23438 10.4609 3C10.3281 2.76562 10.2578 2.51562 10.25 2.25C10.25 2.03906 10.2891 1.84375 10.3672 1.66406C10.4453 1.48438 10.5508 1.32812 10.6836 1.19531C10.8164 1.0625 10.9766 0.953125 11.1641 0.867188C11.3516 0.78125 11.5469 0.742188 11.75 0.75C11.9609 0.75 12.1562 0.789062 12.3359 0.867188C12.5156 0.945312 12.6719 1.05078 12.8047 1.18359C12.9375 1.31641 13.0469 1.47656 13.1328 1.66406C13.2188 1.85156 13.2578 2.04687 13.25 2.25C13.25 2.51562 13.1836 2.76562 13.0508 3C12.918 3.23438 12.7344 3.41797 12.5 3.55078V6H17.75C18.0625 6 18.3555 6.05859 18.6289 6.17578C18.9023 6.29297 19.1406 6.45312 19.3438 6.65625C19.5469 6.85938 19.707 7.09766 19.8242 7.37109C19.9414 7.64453 20 7.9375 20 8.25V10.5H21.5ZM18.5 8.25C18.5 8.04687 18.4258 7.87109 18.2773 7.72266C18.1289 7.57422 17.9531 7.5 17.75 7.5H5.75C5.54688 7.5 5.37109 7.57422 5.22266 7.72266C5.07422 7.87109 5 8.04687 5 8.25V17.25C5 17.4531 5.07422 17.6289 5.22266 17.7773C5.37109 17.9258 5.54688 18 5.75 18H11V20.6484L14.0938 18H17.75C17.9531 18 18.1289 17.9258 18.2773 17.7773C18.4258 17.6289 18.5 17.4531 18.5 17.25V8.25ZM8.52734 13.6641C8.95703 14.0938 9.44922 14.4219 10.0039 14.6484C10.5586 14.875 11.1406 14.9922 11.75 15C12.3594 15 12.9414 14.8867 13.4961 14.6602C14.0508 14.4336 14.543 14.1016 14.9727 13.6641L16.0273 14.7305C15.457 15.3008 14.8047 15.7383 14.0703 16.043C13.3359 16.3477 12.5625 16.5 11.75 16.5C10.9453 16.5 10.1758 16.3477 9.44141 16.043C8.70703 15.7383 8.05078 15.3008 7.47266 14.7305L8.52734 13.6641Z" fill="currentColor"/>
</svg>
