<svg width="25" height="24" viewBox="0 0 25 24" fill="none" xmlns="http://www.w3.org/2000/svg">
<path d="M14.6201 4L16.4501 6H20.5001V18H4.50006V6H8.55006L10.3801 4H14.6201ZM15.5001 2H9.50006L7.67006 4H4.50006C3.40006 4 2.50006 4.9 2.50006 6V18C2.50006 19.1 3.40006 20 4.50006 20H20.5001C21.6001 20 22.5001 19.1 22.5001 18V6C22.5001 4.9 21.6001 4 20.5001 4H17.3301L15.5001 2ZM12.5001 9C14.1501 9 15.5001 10.35 15.5001 12C15.5001 13.65 14.1501 15 12.5001 15C10.8501 15 9.50006 13.65 9.50006 12C9.50006 10.35 10.8501 9 12.5001 9ZM12.5001 7C9.74006 7 7.50006 9.24 7.50006 12C7.50006 14.76 9.74006 17 12.5001 17C15.2601 17 17.5001 14.76 17.5001 12C17.5001 9.24 15.2601 7 12.5001 7Z" fill="currentColor"/>
</svg>
