<svg width="216" height="44" viewBox="0 0 216 44" fill="none" xmlns="http://www.w3.org/2000/svg">
<g clip-path="url(#clip0_158_4749)">
<path d="M86.8459 16.5408C86.7648 15.7177 86.4148 15.0782 85.7973 14.6225C85.1793 14.1667 84.3408 13.9388 83.2814 13.9388C82.5617 13.9388 81.9541 14.0408 81.4584 14.2449C80.9628 14.4422 80.5823 14.7177 80.3175 15.0714C80.0598 15.4252 79.9308 15.8265 79.9308 16.2755C79.9169 16.6496 79.9953 16.9762 80.1647 17.2551C80.3412 17.534 80.5823 17.7755 80.888 17.9796C81.1936 18.1769 81.5467 18.3503 81.9474 18.5C82.348 18.6428 82.7755 18.7653 83.2304 18.8673L85.1044 19.3163C86.0142 19.5204 86.8495 19.7925 87.61 20.1327C88.3704 20.4728 89.0292 20.8912 89.5858 21.3878C90.1428 21.8843 90.5739 22.4694 90.8791 23.1429C91.1914 23.8164 91.351 24.5885 91.3581 25.4592C91.351 26.7381 91.0252 27.8469 90.3803 28.7857C89.7422 29.7177 88.8186 30.4422 87.61 30.9592C86.4081 31.4694 84.9584 31.7245 83.2608 31.7245C81.5772 31.7245 80.1105 31.466 78.8611 30.949C77.6188 30.432 76.6477 29.6667 75.9482 28.6531C75.2558 27.6327 74.8924 26.3707 74.8583 24.8674H79.1259C79.1734 25.568 79.3737 26.1531 79.7269 26.6225C80.0867 27.0851 80.5653 27.4354 81.1631 27.6735C81.7672 27.9048 82.4497 28.0204 83.2102 28.0204C83.9568 28.0204 84.6052 27.9116 85.1555 27.6939C85.7121 27.4762 86.1432 27.1735 86.4488 26.7857C86.7545 26.398 86.9073 25.9524 86.9073 25.449C86.9073 24.9796 86.7679 24.585 86.4896 24.2653C86.2181 23.9456 85.8174 23.6735 85.2877 23.449C84.7652 23.2245 84.1235 23.0204 83.363 22.8367L81.0919 22.2653C79.3329 21.8368 77.9446 21.1667 76.926 20.2551C75.9074 19.3435 75.4019 18.1157 75.4086 16.5714C75.4019 15.3061 75.738 14.2007 76.4169 13.2551C77.1026 12.3095 78.0432 11.5714 79.2379 11.0408C80.4331 10.5102 81.791 10.2449 83.3119 10.2449C84.8602 10.2449 86.2113 10.5102 87.3657 11.0408C88.5264 11.5714 89.4298 12.3095 90.0747 13.2551C90.7196 14.2007 91.0525 15.2959 91.0727 16.5408H86.8459ZM98.1303 31.7245C97.1319 31.7245 96.2428 31.551 95.4617 31.2041C94.681 30.8503 94.0631 30.3299 93.6082 29.6428C93.1601 28.949 92.936 28.085 92.936 27.051C92.936 26.1803 93.0956 25.449 93.4146 24.8571C93.7337 24.2653 94.1684 23.7891 94.7182 23.4286C95.2681 23.068 95.8928 22.7959 96.5923 22.6122C97.2986 22.4286 98.0385 22.2993 98.8124 22.2245C99.7225 22.1293 100.456 22.0408 101.013 21.9592C101.569 21.8707 101.973 21.7415 102.224 21.5715C102.476 21.4014 102.601 21.1497 102.601 20.8163V20.7551C102.601 20.1089 102.397 19.6088 101.99 19.2551C101.589 18.9014 101.019 18.7245 100.279 18.7245C99.4985 18.7245 98.8769 18.898 98.4153 19.2449C97.9538 19.585 97.6481 20.0136 97.4989 20.5306L93.4859 20.2041C93.6898 19.2517 94.0904 18.4286 94.6878 17.7347C95.2851 17.034 96.0559 16.4966 96.9997 16.1225C97.9502 15.7415 99.0503 15.551 100.3 15.551C101.169 15.551 102 15.653 102.795 15.8572C103.596 16.0612 104.306 16.3776 104.924 16.8061C105.548 17.2347 106.04 17.7857 106.4 18.4592C106.76 19.1259 106.94 19.9252 106.94 20.8571V31.4286H102.825V29.2551H102.703C102.452 29.7449 102.116 30.1769 101.695 30.551C101.274 30.9184 100.768 31.2075 100.177 31.4184C99.5868 31.6224 98.9042 31.7245 98.1303 31.7245ZM99.3725 28.7245C100.011 28.7245 100.574 28.5987 101.063 28.347C101.552 28.0884 101.936 27.7415 102.214 27.3061C102.493 26.8708 102.632 26.3776 102.632 25.8265V24.1633C102.496 24.2517 102.309 24.3334 102.072 24.4082C101.841 24.4762 101.58 24.5408 101.287 24.6021C100.996 24.6565 100.704 24.7075 100.412 24.7551C100.12 24.7959 99.8547 24.8333 99.6172 24.8674C99.1082 24.9422 98.6632 25.0612 98.2831 25.2245C97.9027 25.3878 97.6074 25.6089 97.3967 25.8878C97.1866 26.1599 97.0812 26.5 97.0812 26.9082C97.0812 27.5 97.295 27.9524 97.723 28.2653C98.1572 28.5714 98.7075 28.7245 99.3725 28.7245ZM118.145 15.7551V19.0204H108.49V15.7551H118.145ZM110.7 31.4286V14.6225C110.7 13.4864 110.921 12.5442 111.362 11.7959C111.81 11.0476 112.421 10.4864 113.195 10.1122C113.97 9.7381 114.849 9.55101 115.833 9.55101C116.499 9.55101 117.107 9.60206 117.656 9.70407C118.213 9.80612 118.627 9.89798 118.899 9.97961L118.125 13.2449C117.955 13.1905 117.745 13.1394 117.493 13.0918C117.249 13.0442 116.998 13.0204 116.74 13.0204C116.101 13.0204 115.657 13.1701 115.405 13.4694C115.154 13.7619 115.029 14.1735 115.029 14.7041V31.4286H110.7ZM126.792 31.7347C125.182 31.7347 123.797 31.4081 122.636 30.7551C121.482 30.0952 120.592 29.1632 119.967 27.9592C119.343 26.7483 119.031 25.3163 119.031 23.6632C119.031 22.051 119.343 20.636 119.967 19.4184C120.592 18.2007 121.472 17.2517 122.606 16.5714C123.746 15.8911 125.084 15.551 126.618 15.551C127.65 15.551 128.611 15.7177 129.501 16.051C130.397 16.3776 131.178 16.8708 131.843 17.5306C132.515 18.1905 133.038 19.0204 133.411 20.0204C133.785 21.0136 133.972 22.1769 133.972 23.5102V24.7041H120.762V22.0102H129.888C129.888 21.3844 129.752 20.8299 129.48 20.3469C129.209 19.8639 128.832 19.4864 128.35 19.2143C127.874 18.9354 127.321 18.7959 126.689 18.7959C126.031 18.7959 125.447 18.949 124.938 19.2551C124.435 19.5544 124.041 19.9592 123.756 20.4694C123.471 20.9728 123.325 21.534 123.319 22.1531V24.7143C123.319 25.4898 123.461 26.1599 123.746 26.7245C124.038 27.2891 124.449 27.7245 124.978 28.0306C125.508 28.3367 126.136 28.4898 126.863 28.4898C127.345 28.4898 127.786 28.4218 128.187 28.2857C128.587 28.1497 128.93 27.9456 129.216 27.6735C129.501 27.4014 129.718 27.068 129.867 26.6735L133.88 26.9388C133.676 27.9048 133.259 28.7483 132.627 29.4694C132.003 30.1837 131.194 30.7415 130.203 31.1428C129.219 31.5374 128.082 31.7347 126.792 31.7347ZM143.705 31.4286H136.311V10.5306H143.766C145.865 10.5306 147.671 10.949 149.185 11.7857C150.699 12.6157 151.863 13.8095 152.678 15.3674C153.5 16.9252 153.91 18.7891 153.91 20.9592C153.91 23.1361 153.5 25.0068 152.678 26.5714C151.863 28.1361 150.692 29.3367 149.164 30.1735C147.643 31.0102 145.824 31.4286 143.705 31.4286ZM140.721 27.6429H143.522C144.825 27.6429 145.922 27.4116 146.811 26.949C147.708 26.4796 148.38 25.7551 148.828 24.7755C149.283 23.7891 149.511 22.517 149.511 20.9592C149.511 19.415 149.283 18.1531 148.828 17.1735C148.38 16.1939 147.711 15.4728 146.822 15.0102C145.932 14.5476 144.836 14.3163 143.532 14.3163H140.721V27.6429ZM163.59 31.7347C162.009 31.7347 160.64 31.398 159.486 30.7245C158.338 30.0442 157.452 29.0986 156.828 27.8877C156.203 26.6701 155.891 25.2585 155.891 23.6531C155.891 22.034 156.203 20.619 156.828 19.4082C157.452 18.1905 158.338 17.2449 159.486 16.5714C160.64 15.8911 162.009 15.551 163.59 15.551C165.172 15.551 166.537 15.8911 167.685 16.5714C168.839 17.2449 169.729 18.1905 170.353 19.4082C170.978 20.619 171.29 22.034 171.29 23.6531C171.29 25.2585 170.978 26.6701 170.353 27.8877C169.729 29.0986 168.839 30.0442 167.685 30.7245C166.537 31.398 165.172 31.7347 163.59 31.7347ZM163.611 28.3673C164.33 28.3673 164.931 28.1633 165.413 27.7551C165.896 27.3401 166.259 26.7755 166.503 26.0612C166.754 25.3469 166.88 24.534 166.88 23.6224C166.88 22.7109 166.754 21.898 166.503 21.1837C166.259 20.4694 165.896 19.9047 165.413 19.4898C164.931 19.0748 164.33 18.8673 163.611 18.8673C162.884 18.8673 162.273 19.0748 161.777 19.4898C161.289 19.9047 160.919 20.4694 160.667 21.1837C160.423 21.898 160.301 22.7109 160.301 23.6224C160.301 24.534 160.423 25.3469 160.667 26.0612C160.919 26.7755 161.289 27.3401 161.777 27.7551C162.273 28.1633 162.884 28.3673 163.611 28.3673ZM186.554 20.2245L182.582 20.4694C182.514 20.1292 182.368 19.8231 182.144 19.551C181.92 19.2721 181.625 19.051 181.258 18.8878C180.898 18.7177 180.467 18.6327 179.964 18.6327C179.292 18.6327 178.725 18.7755 178.264 19.0612C177.802 19.3402 177.571 19.7143 177.571 20.1837C177.571 20.5578 177.72 20.8741 178.019 21.1327C178.318 21.3911 178.831 21.5987 179.557 21.7551L182.388 22.3265C183.909 22.6394 185.043 23.1429 185.79 23.8367C186.537 24.5306 186.91 25.4422 186.91 26.5714C186.91 27.5986 186.608 28.5 186.004 29.2755C185.406 30.051 184.585 30.6565 183.539 31.0918C182.5 31.5204 181.302 31.7347 179.944 31.7347C177.873 31.7347 176.223 31.3027 174.994 30.4388C173.772 29.5681 173.055 28.3844 172.845 26.8878L177.112 26.6633C177.241 27.2959 177.554 27.7789 178.049 28.1122C178.545 28.4388 179.18 28.602 179.954 28.602C180.714 28.602 181.326 28.4558 181.787 28.1633C182.256 27.8639 182.494 27.4796 182.5 27.0102C182.494 26.6156 182.327 26.2925 182.002 26.0408C181.675 25.7823 181.173 25.585 180.494 25.449L177.785 24.9082C176.257 24.6021 175.12 24.0714 174.373 23.3163C173.633 22.5612 173.263 21.5987 173.263 20.4286C173.263 19.4218 173.534 18.5544 174.078 17.8265C174.627 17.0986 175.398 16.5374 176.39 16.1428C177.388 15.7483 178.555 15.551 179.893 15.551C181.869 15.551 183.424 15.9694 184.558 16.8061C185.699 17.6429 186.364 18.7823 186.554 20.2245ZM196.198 31.7347C194.589 31.7347 193.204 31.4081 192.043 30.7551C190.888 30.0952 189.999 29.1632 189.374 27.9592C188.75 26.7483 188.438 25.3163 188.438 23.6632C188.438 22.051 188.75 20.636 189.374 19.4184C189.999 18.2007 190.879 17.2517 192.012 16.5714C193.153 15.8911 194.491 15.551 196.025 15.551C197.057 15.551 198.018 15.7177 198.907 16.051C199.804 16.3776 200.585 16.8708 201.25 17.5306C201.922 18.1905 202.445 19.0204 202.818 20.0204C203.192 21.0136 203.378 22.1769 203.378 23.5102V24.7041H190.169V22.0102H199.295C199.295 21.3844 199.159 20.8299 198.887 20.3469C198.616 19.8639 198.239 19.4864 197.757 19.2143C197.281 18.9354 196.728 18.7959 196.096 18.7959C195.438 18.7959 194.854 18.949 194.344 19.2551C193.842 19.5544 193.448 19.9592 193.163 20.4694C192.878 20.9728 192.732 21.534 192.725 22.1531V24.7143C192.725 25.4898 192.868 26.1599 193.153 26.7245C193.445 27.2891 193.856 27.7245 194.385 28.0306C194.915 28.3367 195.543 28.4898 196.27 28.4898C196.752 28.4898 197.193 28.4218 197.593 28.2857C197.994 28.1497 198.337 27.9456 198.622 27.6735C198.907 27.4014 199.125 27.068 199.274 26.6735L203.287 26.9388C203.083 27.9048 202.666 28.7483 202.034 29.4694C201.41 30.1837 200.601 30.7415 199.61 31.1428C198.625 31.5374 197.489 31.7347 196.198 31.7347ZM205.636 31.4286V15.7551H209.843V18.4898H210.006C210.291 17.517 210.769 16.7823 211.442 16.2857C212.114 15.7823 212.888 15.5306 213.764 15.5306C213.981 15.5306 214.216 15.5442 214.466 15.5714C214.718 15.5986 214.938 15.6361 215.128 15.6837V19.5408C214.925 19.4796 214.643 19.4252 214.283 19.3776C213.923 19.3299 213.594 19.3061 213.296 19.3061C212.657 19.3061 212.087 19.4456 211.584 19.7245C211.088 19.9966 210.695 20.3776 210.403 20.8674C210.118 21.3572 209.975 21.9218 209.975 22.5612V31.4286H205.636Z" fill="#08B5A6"/>
<path d="M47.5021 41.7551C37.2847 44.0898 25.6183 41.2313 21.0623 39.5102L34.2822 22.2245L46.8299 16.1633C46.8299 16.1633 48.3984 19.3061 52.2075 20.4286C56.7601 21.7701 64.3071 22.2245 64.3071 22.2245C64.3071 22.2245 62.7386 25.012 63.8589 28.7347C64.9793 32.4574 68.3403 34.1225 68.3403 34.1225L47.5021 41.7551Z" fill="#066B65" stroke="#066B65" stroke-width="5" stroke-linejoin="round"/>
<path d="M39.8838 14.3673H1.34439V39.5102H39.8838V14.3673Z" fill="white"/>
<path d="M39.8838 4.4898H1.34439V14.3674H39.8838V4.4898Z" fill="#08B5A6"/>
<path d="M36.5228 0C37.1416 7.36641e-08 37.6432 0.502538 37.6432 1.12245V3.14286H40.556C41.1748 3.14286 41.6763 3.6454 41.6763 4.26531V39.7347C41.6763 40.3546 41.1748 40.8571 40.556 40.8571H1.12033C0.501591 40.8571 0 40.3546 0 39.7347V4.26531C0 3.6454 0.501591 3.14286 1.12033 3.14286H3.13693V1.12245C3.13693 0.502538 3.63852 2.70972e-08 4.25726 0C4.876 7.36641e-08 5.37759 0.502538 5.37759 1.12245V3.14286H13.8921V1.12245C13.8921 0.502538 14.3937 2.70972e-08 15.0124 0C15.6312 7.36641e-08 16.1328 0.502538 16.1328 1.12245V3.14286H24.6473V1.12245C24.6473 0.502538 25.1489 2.70972e-08 25.7676 0C26.3864 7.36641e-08 26.888 0.502538 26.888 1.12245V3.14286H35.4025V1.12245C35.4025 0.502538 35.9041 2.70972e-08 36.5228 0ZM2.24066 38.6122H39.4357V15.4898H2.24066V38.6122ZM2.24066 13.2449H39.4357V5.38775H2.24066V13.2449Z" fill="#08B5A6"/>
<path d="M22.8075 27.6905L29.1758 21.3103L38.0912 30.2426L34.4826 34.4961L28.7512 37.2609L24.718 36.1975L22.383 32.582L22.8075 27.6905Z" fill="#08B5A6"/>
<path d="M45.3322 23.2807L38.9404 29.6372L30.058 20.6718L33.6824 16.4318L37.879 13.4411L43.4532 14.7667L45.775 18.3908L45.3322 23.2807Z" fill="white"/>
<path d="M29.3262 20.6099L38.7899 30.0914M23.9185 26.0279L34.734 15.1919C35.989 13.9346 37.6911 13.2282 39.4659 13.2282C41.2407 13.2282 42.9427 13.9346 44.1977 15.1919C45.4528 16.4493 46.1577 18.1545 46.1577 19.9327C46.1577 21.7108 45.4528 23.4161 44.1977 24.6734L33.3821 35.5094C32.1272 36.7668 30.4251 37.4731 28.6503 37.4731C26.8755 37.4731 25.1734 36.7668 23.9185 35.5094C22.6635 34.2521 21.9585 32.5468 21.9585 30.7687C21.9585 28.9906 22.6635 27.2853 23.9185 26.0279Z" stroke="#08B5A6" stroke-width="4" stroke-linecap="round" stroke-linejoin="round"/>
</g>
<defs>
<clipPath id="clip0_158_4749">
<rect width="216" height="44" fill="white"/>
</clipPath>
</defs>
</svg>